<svg width="120" height="120" viewBox="0 0 120 120" xmlns="http://www.w3.org/2000/svg">
  <rect width="120" height="120" fill="none"/>
  <g fill="#dcebf6" fill-opacity="0.65">
    <circle cx="12" cy="12" r="1.5"/>
    <circle cx="36" cy="12" r="1.5"/>
    <circle cx="60" cy="12" r="1.5"/>
    <circle cx="84" cy="12" r="1.5"/>
    <circle cx="108" cy="12" r="1.5"/>
    <circle cx="12" cy="36" r="1.5"/>
    <circle cx="36" cy="36" r="1.5"/>
    <circle cx="60" cy="36" r="1.5"/>
    <circle cx="84" cy="36" r="1.5"/>
    <circle cx="108" cy="36" r="1.5"/>
    <circle cx="12" cy="60" r="1.5"/>
    <circle cx="36" cy="60" r="1.5"/>
    <circle cx="60" cy="60" r="1.5"/>
    <circle cx="84" cy="60" r="1.5"/>
    <circle cx="108" cy="60" r="1.5"/>
    <circle cx="12" cy="84" r="1.5"/>
    <circle cx="36" cy="84" r="1.5"/>
    <circle cx="60" cy="84" r="1.5"/>
    <circle cx="84" cy="84" r="1.5"/>
    <circle cx="108" cy="84" r="1.5"/>
    <circle cx="12" cy="108" r="1.5"/>
    <circle cx="36" cy="108" r="1.5"/>
    <circle cx="60" cy="108" r="1.5"/>
    <circle cx="84" cy="108" r="1.5"/>
    <circle cx="108" cy="108" r="1.5"/>
  </g>
</svg>
